<svg width="40" height="40" fill="none" xmlns="http://www.w3.org/2000/svg"><circle cx="20" cy="20" r="19" fill="#fff" stroke="#0CA34E" stroke-width="2"/><g clip-path="url(#a)" fill="#0CA34E"><path d="m29.5 15.76-.47.472a2.35 2.35 0 0 1-.19.168 9.712 9.712 0 0 1 .847 3.97c0 5.386-4.383 9.769-9.77 9.769s-9.77-4.383-9.77-9.77c0-5.386 4.383-9.768 9.77-9.768 1.123 0 2.2.193 3.204.543a2.59 2.59 0 0 1 .36-.458l.243-.242a10.6 10.6 0 0 0-3.806-.705c-5.871 0-10.632 4.76-10.632 10.63C9.286 26.24 14.046 31 19.918 31c5.871 0 10.631-4.76 10.631-10.63 0-1.652-.376-3.215-1.049-4.61Z"/><path d="M26.434 17.059h-.966c.491.899.77 1.929.77 3.023a6.328 6.328 0 0 1-6.32 6.321 6.328 6.328 0 0 1-6.322-6.321 6.328 6.328 0 0 1 6.322-6.32c.98 0 1.908.224 2.737.623v-.944a7.183 7.183 0 1 0 3.779 3.617Z"/><path d="M32.647 10.553a.651.651 0 0 0-.283-.277.922.922 0 0 0-.332-.093L29.98 9.98a.28.28 0 0 1-.16-.085.276.276 0 0 1-.083-.159l-.206-2.052a.85.85 0 0 0-.16-.439.609.609 0 0 0-.487-.244.691.691 0 0 0-.316.08.968.968 0 0 0-.234.175l-4.141 4.141a1.842 1.842 0 0 0-.38.596c-.09.22-.151.45-.153.69v2.365c0 .162.043.313.11.449l-1.78 1.833a3.43 3.43 0 0 0-2.071-.697 3.448 3.448 0 1 0 2.69 1.296l1.846-1.9c.07.015.141.022.212.023h2.367c.24-.002.47-.062.69-.152.22-.092.425-.212.596-.38l4.14-4.14a.963.963 0 0 0 .175-.235.686.686 0 0 0 .08-.315.595.595 0 0 0-.067-.278Zm-12.73 12.115a2.589 2.589 0 0 1-2.586-2.586 2.589 2.589 0 0 1 2.587-2.585c.544 0 1.048.17 1.465.457l-1.775 1.828a.43.43 0 1 0 .619.6L22 18.557c.314.429.503.955.503 1.526a2.589 2.589 0 0 1-2.586 2.586Zm4.606-7.946v-2.04c-.002-.076.03-.225.087-.36.054-.136.138-.263.193-.316l3.905-3.904.172 1.72c.012.115.045.222.089.323l-4.446 4.577Zm3.186.19c-.053.054-.18.137-.316.193a1.037 1.037 0 0 1-.36.087h-1.765l4.313-4.441c.098.042.201.073.313.085l1.72.172-3.905 3.904Z"/></g><defs><clipPath id="a"><path fill="#fff" transform="translate(9 7)" d="M0 0h24v24H0z"/></clipPath></defs></svg>