<svg width="40" height="40" fill="none" xmlns="http://www.w3.org/2000/svg"><circle cx="20" cy="20" r="19" fill="#fff" stroke="#0CA34E" stroke-width="2"/><g clip-path="url(#a)" fill="#0CA34E"><path d="m22.715 17.77-3.607 3.407-1.73-1.78a.499.499 0 0 0-.715.694l2.075 2.131a.508.508 0 0 0 .706.015l3.966-3.741a.497.497 0 0 0 .02-.705.51.51 0 0 0-.715-.02Z"/><path d="M20.039 12.529c-4.122 0-7.473 3.35-7.473 7.472 0 4.121 3.351 7.473 7.473 7.473 4.121 0 7.472-3.352 7.472-7.473s-3.35-7.472-7.472-7.472Zm0 13.944a6.48 6.48 0 0 1-6.472-6.472 6.48 6.48 0 0 1 6.472-6.472 6.472 6.472 0 1 1 0 12.944Z"/><path d="m30.322 17.25.165-2.966a.5.5 0 0 0-.275-.475l-2.64-1.335-1.336-2.641a.507.507 0 0 0-.476-.275l-2.97.16-2.476-1.636a.5.5 0 0 0-.55 0l-2.476 1.636-2.966-.165a.498.498 0 0 0-.475.275l-1.336 2.64-2.64 1.336a.507.507 0 0 0-.275.476l.164 2.965-1.635 2.476a.5.5 0 0 0 0 .55l1.63 2.481-.165 2.966a.499.499 0 0 0 .276.475l2.64 1.335 1.336 2.641a.507.507 0 0 0 .475.276l2.966-.166 2.476 1.636a.487.487 0 0 0 .55 0l2.476-1.636 2.966.166a.499.499 0 0 0 .475-.276l1.335-2.64 2.641-1.336a.507.507 0 0 0 .275-.475l-.165-2.966 1.636-2.476a.5.5 0 0 0 0-.55l-1.626-2.476Zm-.93 5.092a.47.47 0 0 0-.08.305l.155 2.806-2.496 1.26a.494.494 0 0 0-.22.22l-1.26 2.496-2.806-.155a.546.546 0 0 0-.306.08L20.04 30.9l-2.34-1.546a.494.494 0 0 0-.276-.085h-.025l-2.806.155-1.26-2.496a.493.493 0 0 0-.22-.22l-2.501-1.255.155-2.806a.547.547 0 0 0-.08-.305l-1.546-2.34 1.546-2.342a.468.468 0 0 0 .08-.305l-.155-2.806 2.496-1.26a.493.493 0 0 0 .22-.22l1.26-2.496 2.806.155a.549.549 0 0 0 .305-.08l2.34-1.545 2.341 1.545c.09.061.198.09.306.08l2.805-.155 1.26 2.496a.493.493 0 0 0 .22.22l2.497 1.26-.155 2.806a.548.548 0 0 0 .08.305l1.545 2.341-1.545 2.34Z"/></g><defs><clipPath id="a"><path fill="#fff" transform="translate(8 8)" d="M0 0h24v24H0z"/></clipPath></defs></svg>