<svg width="40" height="40" fill="none" xmlns="http://www.w3.org/2000/svg"><circle cx="20" cy="20" r="19" fill="#fff" stroke="#0CA34E" stroke-width="2"/><g clip-path="url(#a)" fill="#0CA34E"><path d="M27.152 15.656a.97.97 0 0 0-.971-.929h-3.085a4.074 4.074 0 1 0-6.182 0h-3.085a.97.97 0 0 0-.97.929L9.83 30.952a.456.456 0 0 0 0 .088c0 .536.435.971.97.971h18.423a.971.971 0 0 0 .971-.97.481.481 0 0 0 0-.09l-3.042-15.295Zm-10.29-3.535a3.145 3.145 0 1 1 4.85 2.639h-3.41a3.161 3.161 0 0 1-1.44-2.639Zm12.361 18.961H10.792a.04.04 0 0 1-.037 0l3.028-15.259a.45.45 0 0 0 0-.088.042.042 0 0 1 .042-.042h12.36a.042.042 0 0 1 .04.026l.002.016a.465.465 0 0 0 0 .088l3.029 15.26a.044.044 0 0 1-.033 0Z"/><path d="M20.007 14.105a2.007 2.007 0 1 0-2.006-2.007v.023a2.007 2.007 0 0 0 2.006 1.984Zm0-3.085a1.077 1.077 0 1 1-.024 0h.024Z"/></g><defs><clipPath id="a"><path fill="#fff" transform="translate(8 8)" d="M0 0h24v24H0z"/></clipPath></defs></svg>