<svg width="25" height="24" fill="none" xmlns="http://www.w3.org/2000/svg"><path d="M22.305 10.041H21.5V10h-9v4h5.651A5.998 5.998 0 0 1 6.5 12a6 6 0 0 1 6-6c1.53 0 2.921.577 3.98 1.52l2.83-2.83A9.954 9.954 0 0 0 12.5 2c-5.522 0-10 4.478-10 10 0 5.523 4.478 10 10 10 5.523 0 10-4.477 10-10 0-.67-.069-1.325-.195-1.959Z" fill="#FFC107"/><path d="m3.652 7.346 3.286 2.409A5.997 5.997 0 0 1 12.499 6c1.53 0 2.921.577 3.98 1.52l2.83-2.829A9.954 9.954 0 0 0 12.498 2a9.994 9.994 0 0 0-8.847 5.346Z" fill="#FF3D00"/><path d="M12.5 22c2.583 0 4.93-.988 6.704-2.596l-3.095-2.619A5.955 5.955 0 0 1 12.5 18a5.997 5.997 0 0 1-5.642-3.973l-3.26 2.513C5.251 19.777 8.612 22 12.5 22Z" fill="#4CAF50"/><path d="M22.305 10.041H21.5V10h-9v4h5.651a6.02 6.02 0 0 1-2.043 2.785h.002l3.095 2.619C18.985 19.602 22.5 17 22.5 12c0-.67-.069-1.325-.195-1.959Z" fill="#1976D2"/></svg>