<svg width="20" height="21" fill="none" xmlns="http://www.w3.org/2000/svg"><path d="M9.498 8.494a2.84 2.84 0 0 0-2.835 2.834 2.84 2.84 0 0 0 2.835 2.835 2.84 2.84 0 0 0 2.834-2.835 2.84 2.84 0 0 0-2.834-2.834Zm8.501 2.834c0-1.174.011-2.337-.055-3.508-.066-1.361-.376-2.57-1.371-3.564-.998-.998-2.204-1.306-3.564-1.372-1.174-.066-2.337-.055-3.509-.055-1.174 0-2.337-.01-3.509.055-1.36.066-2.568.376-3.564 1.372-.997.997-1.305 2.203-1.371 3.563C.99 8.993 1 10.156 1 11.33c0 1.17-.011 2.336.055 3.508.066 1.36.376 2.569 1.371 3.564.998.997 2.203 1.305 3.564 1.371 1.174.066 2.337.056 3.509.056 1.174 0 2.337.01 3.509-.056 1.36-.066 2.568-.376 3.564-1.371.997-.998 1.305-2.203 1.371-3.564.068-1.172.055-2.335.055-3.509ZM9.498 15.69a4.355 4.355 0 0 1-4.361-4.36 4.355 4.355 0 0 1 4.36-4.362 4.355 4.355 0 0 1 4.362 4.361 4.355 4.355 0 0 1-4.361 4.361Zm4.54-7.882a1.017 1.017 0 0 1-1.019-1.019c0-.563.455-1.018 1.019-1.018a1.017 1.017 0 1 1 0 2.037Z" fill="#fff"/></svg>