<svg width="54" height="53" fill="none" xmlns="http://www.w3.org/2000/svg"><path d="M26.793 52.975c14.753 0 26.793-11.892 26.793-26.475 0-14.583-12.04-26.475-26.793-26.475C12.035.025 0 11.917 0 26.5c0 14.583 12.035 26.475 26.793 26.475Z" fill="#FEFEFE"/><path fill-rule="evenodd" clip-rule="evenodd" d="M31.196 11.11c.734.635 1.492 1.341 2.177 2.176 1.096 1.345 1.767 2.69 2.139 4.007.425 1.493.574 2.986.13 4.48-.188.63-.676 1.292-1.038 1.722 1.221-2.529.633-5.968-1.487-8.563-.666-1.054-1.694-1.951-2.756-2.767-1.985-1.03-4.958-2.9-5.91-3.969.638.873 2.062 2.018 2.844 2.605 1.178.882 1.724 1.002 2.5 1.488.363.23.445.348.725.468l-1.641-.01c-6.252.544-9.878-2.929-9.617-9.097.69.224.792.468 1.859.472.7 0 1.414-.062 2.124-.08 6.522-.163 5.62 4.03 7.95 7.069Zm2.11-2.985c-.676.625-.86 1.474-1.29 2.304-.424-1.985-1.216-3.43.792-5.014.681-.534 1.931-1.102 2.979-1.126.116-.003.228 0 .338.01 1.926 4.017-1.854 5.624-4.026 7.15.169-1.445.97-2.566 1.207-3.324Z" fill="#FBB016"/><path fill-rule="evenodd" clip-rule="evenodd" d="M26.827 13.558a7.008 7.008 0 0 1 2.245.325c.685.21 1.443.591 2.124 1.078 1.617 1.154 2.694 3.048 2.834 5.023.082 1.965-.31 3.215-1.444 4.827-1.94 2.395-5.856 3.406-8.67 2.07-.82-.39-1.333-.83-1.999-1.416-.738-.759-1.216-1.527-1.603-2.5-.347-.878-.43-1.841-.39-2.78.028-.721.135-1.337.458-2.176.618-1.617 1.81-2.757 3.317-3.62.95-.545 2.037-.807 3.128-.83Zm-3.413 11.754.038-2.042c-2.452-.143-1.342 1.183-.038 2.042Zm3.543-1.064c-.183-.348-1.984-.925-2.418-.906-.121.749-.184 1.698.077 2.423.063.177.116.32.39.363.19-.024-.004.029.237-.072.17-.066.102-.033.213-.11.574-.386 1.134-1.13 1.501-1.698Zm1.362-2.642-3.061-1.112c-.101.272-.454 1.44-.502 1.765 1.226.3 1.636.396 2.79 1.03l.773-1.683Zm1.559 4.107c.84-.196 2.206-1.97 2.505-2.619l-2.756-.997-.304-.11a18.908 18.908 0 0 1-.913 1.913 192.87 192.87 0 0 0 1.468 1.813Zm-5.653-5.572-3.032-.997c-.444.687-.135 2.829.16 3.44.487-.186 1.158-.315 1.78-.368l.483-.019c.165-.329.45-1.545.609-2.056ZM26.305 18l-.695 1.489 3.076 1.13.15-.439.26-.91.092-.359c-.097-.076-2.506-.968-2.79-1.078l-.093.167Zm3.954.921-.135.663c-.135.453-.333.959-.381 1.426l3.007 1.107c.232-.978.333-2.538-.125-3.477-.048-.096-.015-.043-.068-.115-.574.22-1.7.372-2.298.396Zm-8.704-.93 3.032 1.13.932-1.96c-.502-.54-1.362-1.508-1.516-1.79-1.087.635-1.883 1.546-2.448 2.62Zm5.446-1.074c.507.382 1.81.86 2.36.85.082-.611.179-1.517.039-2.109-.058-.239-.087-.382-.246-.506.01-.324-.493-.114-.594-.043-.42.296-1.554 1.422-1.56 1.808Zm3.538-1.116c-.019.162-.058 1.918-.038 2.032.589-.076 1.033-.105 1.602-.295-.386-.654-.917-1.327-1.564-1.737Zm-4.436.449c.371-.673.81-1.04 1.303-1.598-.492-.082-1.974 0-2.365.348.352.381.69.844 1.062 1.25Zm2.756 9.917c-.029-.067-.029-.067-.072-.148-.208-.377-.642-.825-.946-1.111-.203.162-1 1.216-1.328 1.564.922.029 1.477-.09 2.346-.305Z" fill="#0D6529"/><path d="M22.68 31.871a1.74 1.74 0 0 0 1.748-1.727c0-.949-.787-1.722-1.748-1.722-.96 0-1.743.773-1.743 1.722 0 .955.782 1.727 1.743 1.727Zm.792-6.387 7.449.01c.227 0 .415.186.415.414v1.193c0 .224-.188.41-.415.41H19.967a.417.417 0 0 1-.42-.41v-.033l-2.848-8.959h-4.51V16h6.383l2.616 8.272 2.284 1.212Zm5.001 6.387a1.74 1.74 0 0 0 1.748-1.727c0-.949-.787-1.722-1.748-1.722-.96 0-1.743.773-1.743 1.722 0 .955.782 1.727 1.743 1.727ZM5.397 37.52v-.845c0-.436.063-.792.188-1.069.123-.28.284-.5.483-.663.2-.162.423-.275.671-.338.251-.064.5-.096.749-.096.344 0 .637.02.878.062.245.038.43.072.555.1.08.016.121.051.121.105v.716c0 .035-.01.057-.029.067a.138.138 0 0 1-.077.019h-.02L8.3 35.54c-.248-.013-.519-.02-.811-.02-.139 0-.264.02-.377.058a.609.609 0 0 0-.285.186.915.915 0 0 0-.178.358c-.042.15-.063.334-.063.553v.85c0 .235.024.427.072.576.048.15.111.267.188.353.075.09.157.148.247.177a.824.824 0 0 0 .265.047c.187 0 .362-.006.526-.018v-1.556a.178.178 0 0 1 .039-.095.125.125 0 0 1 .097-.043h.878a.12.12 0 0 1 .092.043.13.13 0 0 1 .043.095v2.276c0 .086-.045.136-.135.152-.19.035-.407.069-.652.1a7.89 7.89 0 0 1-.888.044c-.129 0-.267-.013-.415-.039a1.792 1.792 0 0 1-.854-.391 1.669 1.669 0 0 1-.353-.405 1.977 1.977 0 0 1-.246-.563 2.868 2.868 0 0 1-.092-.759Z" fill="#0D6529"/><path fill-rule="evenodd" clip-rule="evenodd" d="M9.786 37.91v-.472c0-.273.038-.518.115-.734.074-.22.185-.404.334-.554.148-.15.328-.267.54-.353a1.96 1.96 0 0 1 .739-.128c.28 0 .526.042.738.128.216.086.396.204.541.353.145.15.254.334.328.554.074.216.113.46.116.734v.472a2.348 2.348 0 0 1-.116.735c-.074.216-.183.4-.328.553a1.45 1.45 0 0 1-.54.353 2.028 2.028 0 0 1-.74.124c-.28 0-.525-.04-.738-.123a1.5 1.5 0 0 1-.54-.353 1.462 1.462 0 0 1-.334-.554 2.175 2.175 0 0 1-.115-.735Zm1.115-.004c0 .28.051.49.154.63.106.14.26.21.459.21.405 0 .608-.28.608-.84v-.472c0-.557-.203-.835-.608-.835a.54.54 0 0 0-.459.21c-.103.14-.154.348-.154.625v.472Zm2.93.004v-.472c0-.273.039-.518.116-.734.074-.22.185-.404.333-.554.148-.15.328-.267.54-.353a1.96 1.96 0 0 1 .74-.128c.28 0 .527.042.743.128.212.086.39.204.536.353.145.15.254.334.328.554.077.216.116.46.116.734v.472c0 .274-.039.519-.116.735-.074.216-.184.4-.328.553-.145.153-.324.27-.536.353a2.068 2.068 0 0 1-.744.124c-.28 0-.526-.04-.738-.123a1.5 1.5 0 0 1-.541-.353 1.463 1.463 0 0 1-.333-.554 2.176 2.176 0 0 1-.116-.735Zm1.115-.004c0 .28.052.49.155.63a.54.54 0 0 0 .458.21c.406 0 .609-.28.609-.84v-.472c0-.557-.203-.835-.609-.835a.54.54 0 0 0-.458.21c-.103.14-.155.348-.155.625v.472Zm2.916.034v-.53c0-.535.143-.96.43-1.274.283-.309.716-.464 1.298-.468.068 0 .153.005.256.015.103.01.205.02.304.033v-1.169c0-.035.015-.065.044-.09a.134.134 0 0 1 .096-.043h.83c.036 0 .068.014.097.043.032.028.049.06.049.095v4.751c0 .058-.013.099-.04.124-.025.026-.084.05-.178.072a5.95 5.95 0 0 1-.676.129 6.375 6.375 0 0 1-.782.047c-.56 0-.988-.15-1.284-.453-.296-.302-.444-.73-.444-1.283Zm1.115 0c0 .123.01.233.024.338a.77.77 0 0 0 .097.262c.045.073.108.13.188.172a.644.644 0 0 0 .304.062c.113 0 .22-.005.319-.014a3.68 3.68 0 0 0 .241-.024v-2.113a4.869 4.869 0 0 0-.56-.034.69.69 0 0 0-.304.057.466.466 0 0 0-.188.172.824.824 0 0 0-.097.267c-.016.102-.024.21-.024.325v.53Z" fill="#0D6529"/><path d="M23.631 35.401v-.7c0-.036.014-.066.043-.092a.143.143 0 0 1 .097-.038h3.408c.036 0 .068.013.097.038.032.026.047.056.043.091v.701c.004.035-.01.066-.043.091a.143.143 0 0 1-.097.038h-1.115v3.95a.14.14 0 0 1-.038.095.143.143 0 0 1-.097.038h-.903a.143.143 0 0 1-.096-.038.14.14 0 0 1-.039-.095v-3.95h-1.12a.143.143 0 0 1-.097-.038.117.117 0 0 1-.043-.09Zm4.041 4.074V35.86c0-.035.013-.065.038-.09a.124.124 0 0 1 .097-.043h.816a.13.13 0 0 1 .096.043.122.122 0 0 1 .044.095v.134a1.454 1.454 0 0 1 .922-.329.139.139 0 0 1 .135.138v.649a.182.182 0 0 1-.024.09.09.09 0 0 1-.077.043h-.053c-.171 0-.329.022-.474.067-.144.044-.281.1-.41.167v2.652a.131.131 0 0 1-.043.096.12.12 0 0 1-.092.043h-.835a.135.135 0 0 1-.097-.043.131.131 0 0 1-.043-.096Z" fill="#0D6529"/><path fill-rule="evenodd" clip-rule="evenodd" d="M30.095 38.507v-.057c0-.398.134-.689.4-.873.271-.185.703-.277 1.295-.277h.367v-.248c0-.194-.045-.321-.136-.382a.696.696 0 0 0-.381-.09c-.11 0-.22.001-.333.004l-.324.01a19.936 19.936 0 0 0-.482.033h-.034a.147.147 0 0 1-.087-.024c-.026-.019-.039-.05-.039-.095v-.553c0-.077.045-.126.136-.148.125-.029.296-.059.511-.09a4.54 4.54 0 0 1 .676-.048c.245 0 .467.027.666.08.2.051.367.133.502.244.139.111.245.254.319.43.074.17.111.382.111.634v2.423a.139.139 0 0 1-.039.095.131.131 0 0 1-.096.038h-.763a.142.142 0 0 1-.096-.038.14.14 0 0 1-.04-.095v-.11c-.131.096-.273.17-.424.224-.151.054-.33.081-.536.081a1.63 1.63 0 0 1-.434-.057.96.96 0 0 1-.377-.19.963.963 0 0 1-.265-.358 1.428 1.428 0 0 1-.097-.563Zm1.086.005c0 .146.036.24.107.281.07.041.18.062.328.062.103 0 .203-.014.3-.043.092-.032.18-.067.26-.105v-.754h-.391c-.12 0-.217.01-.295.03a.495.495 0 0 0-.188.095.312.312 0 0 0-.092.157.756.756 0 0 0-.029.22v.057Zm2.786-.572v-.53c0-.535.142-.96.425-1.274.283-.309.716-.464 1.298-.468.071 0 .158.005.261.015.103.01.204.02.304.033v-1.169c0-.035.015-.065.044-.09a.12.12 0 0 1 .091-.043h.835c.036 0 .068.014.097.043.032.028.048.06.048.095v4.751c0 .058-.014.099-.043.124-.023.026-.08.05-.174.072a5.907 5.907 0 0 1-1.463.176c-.56 0-.986-.15-1.279-.453-.296-.302-.444-.73-.444-1.283Zm1.115 0c0 .123.005.233.024.338a.78.78 0 0 0 .097.262c.045.073.108.13.188.172a.633.633 0 0 0 .3.062c.115 0 .221-.005.318-.014.1-.007.182-.015.246-.024v-2.113a5.437 5.437 0 0 0-.565-.034.678.678 0 0 0-.299.057.466.466 0 0 0-.188.172.821.821 0 0 0-.097.267c-.016.102-.024.21-.024.325v.53Z" fill="#0D6529"/><path d="M38.191 35.148v-.63c0-.038.013-.07.039-.095a.14.14 0 0 1 .101-.043h.888a.13.13 0 0 1 .097.043.122.122 0 0 1 .043.096v.63a.132.132 0 0 1-.043.095.125.125 0 0 1-.097.038h-.888a.125.125 0 0 1-.097-.038.122.122 0 0 1-.043-.096Zm.029 4.332v-3.62a.104.104 0 0 1 .039-.091.135.135 0 0 1 .096-.043h.84a.12.12 0 0 1 .092.043.117.117 0 0 1 .043.09v3.62a.131.131 0 0 1-.043.096.126.126 0 0 1-.092.038h-.84a.143.143 0 0 1-.096-.038.116.116 0 0 1-.039-.095Zm1.96-.005V35.86a.12.12 0 0 1 .039-.09.135.135 0 0 1 .096-.043h.773a.13.13 0 0 1 .091.043.122.122 0 0 1 .044.095v.162a2 2 0 0 1 .536-.276c.17-.051.365-.078.584-.081.248 0 .45.04.608.123.16.083.285.193.372.33.09.14.153.303.188.491.032.188.048.388.048.601v2.261a.132.132 0 0 1-.043.096.14.14 0 0 1-.102.043h-.83a.139.139 0 0 1-.135-.138V37.22c0-.12-.01-.22-.024-.3a.48.48 0 0 0-.077-.196.27.27 0 0 0-.155-.105.924.924 0 0 0-.256-.029.91.91 0 0 0-.309.057 3.135 3.135 0 0 0-.338.158v2.671a.115.115 0 0 1-.038.096.134.134 0 0 1-.097.043h-.83a.151.151 0 0 1-.102-.043.132.132 0 0 1-.043-.096Z" fill="#0D6529"/><path fill-rule="evenodd" clip-rule="evenodd" d="M44.288 39.828c0-.143.033-.278.097-.405a1.09 1.09 0 0 1 .314-.367.574.574 0 0 1-.266-.272.803.803 0 0 1-.082-.34c0-.126.027-.24.082-.338a.854.854 0 0 1 .217-.248.837.837 0 0 1-.241-.372 1.474 1.474 0 0 1-.072-.434v-.053c0-.381.135-.688.405-.92.274-.236.711-.353 1.313-.353h1.704c.052 0 .095.017.13.052a.19.19 0 0 1 .049.134v.396c0 .05-.011.086-.034.105a.347.347 0 0 1-.092.052l-.212.067c.039.064.074.143.106.239a.862.862 0 0 1 .044.257v.053c0 .438-.148.756-.444.954-.297.197-.715.295-1.256.295-.16 0-.302-.01-.424-.028a1.3 1.3 0 0 1-.285-.077.188.188 0 0 0-.078.072.157.157 0 0 0-.024.086c0 .057.015.1.044.129.026.025.08.049.164.071l.796.172c.29.076.536.14.74.19.202.058.37.125.496.201.126.08.216.175.27.286a.93.93 0 0 1 .083.41v.053c0 .738-.602 1.107-1.806 1.107-.57 0-1.002-.097-1.298-.291-.293-.191-.44-.468-.44-.83v-.053Zm1.058-.019v.053c0 .108.048.187.144.238.094.054.272.081.536.081.142 0 .258-.006.348-.019a.622.622 0 0 0 .203-.067.22.22 0 0 0 .096-.1.316.316 0 0 0 .024-.124v-.047a.15.15 0 0 0-.024-.082.204.204 0 0 0-.096-.076 1.285 1.285 0 0 0-.213-.076 84.285 84.285 0 0 0-.372-.1l-.506-.11a.784.784 0 0 0-.102.172.68.68 0 0 0-.038.257Zm.077-2.747a.58.58 0 0 0 .024.166.315.315 0 0 0 .092.144.44.44 0 0 0 .188.105c.082.023.188.038.323.038.245 0 .41-.042.493-.124a.452.452 0 0 0 .12-.33v-.047a.468.468 0 0 0-.125-.334c-.08-.09-.243-.134-.488-.134-.241 0-.41.048-.497.134a.459.459 0 0 0-.13.334v.047Z" fill="#0D6529"/><path d="M20.947 42.504v-.429c0-.223.03-.404.092-.544a.922.922 0 0 1 .246-.338.892.892 0 0 1 .343-.172c.128-.032.256-.048.381-.048.174 0 .322.011.444.034.126.019.22.035.285.047.039.01.058.027.058.053v.367c0 .016-.005.027-.015.033a.069.069 0 0 1-.038.01h-.01a8.096 8.096 0 0 0-.724-.029.62.62 0 0 0-.193.029.32.32 0 0 0-.145.095.481.481 0 0 0-.092.182c-.019.076-.029.17-.029.281v.434c0 .118.012.215.034.291a.537.537 0 0 0 .097.181.3.3 0 0 0 .125.091.433.433 0 0 0 .135.024c.094 0 .184-.003.27-.01v-.791c0-.02.007-.035.02-.048.013-.016.027-.024.043-.024h.45a.06.06 0 0 1 .048.024.058.058 0 0 1 .024.047v1.155c0 .044-.024.072-.072.081-.097.02-.208.035-.334.048a3.633 3.633 0 0 1-.449.024c-.064 0-.135-.007-.212-.02a.982.982 0 0 1-.222-.066 1.08 1.08 0 0 1-.213-.134.803.803 0 0 1-.178-.205 1.072 1.072 0 0 1-.126-.286 1.582 1.582 0 0 1-.043-.387Zm2.288.993V41.66c0-.016.007-.032.02-.048a.066.066 0 0 1 .048-.019h.396c.019 0 .035.007.048.02.016.015.024.031.024.047v.081c.074-.05.153-.092.237-.124a.72.72 0 0 1 .28-.052c.093 0 .173.012.241.038a.49.49 0 0 1 .174.133 9.01 9.01 0 0 1 .14-.076.792.792 0 0 1 .135-.052.695.695 0 0 1 .14-.034c.048-.006.1-.01.154-.01a.64.64 0 0 1 .285.058c.08.035.144.086.189.153a.62.62 0 0 1 .096.238c.02.092.029.196.029.31v1.174a.072.072 0 0 1-.024.052.06.06 0 0 1-.048.024h-.425c-.016 0-.032-.008-.048-.024a.082.082 0 0 1-.02-.052v-1.174c0-.111-.016-.186-.048-.224-.029-.041-.084-.062-.164-.062a.639.639 0 0 0-.12.014.536.536 0 0 0-.15.048c.006.07.01.145.01.224v1.174a.08.08 0 0 1-.02.052c-.016.016-.032.024-.049.024h-.424a.06.06 0 0 1-.049-.024.073.073 0 0 1-.024-.052v-1.174c0-.111-.013-.186-.038-.224-.03-.041-.084-.062-.165-.062a.368.368 0 0 0-.12.024c-.042.016-.09.038-.145.067v1.369a.072.072 0 0 1-.024.052.06.06 0 0 1-.048.024h-.42a.074.074 0 0 1-.053-.024c-.017-.016-.023-.033-.02-.052Z" fill="#42515A"/><path fill-rule="evenodd" clip-rule="evenodd" d="M26.291 43.415v-2.423c0-.016.008-.032.024-.048a.078.078 0 0 1 .048-.019h.425c.02 0 .036.007.049.02a.076.076 0 0 1 .019.047v.596l.16-.019c.05-.003.094-.005.13-.005.296 0 .516.08.66.239.146.159.218.374.218.644v.272c0 .28-.076.498-.227.654-.151.152-.368.228-.652.228-.135 0-.268-.008-.4-.023a2.249 2.249 0 0 1-.348-.067c-.045-.01-.074-.023-.087-.038a.082.082 0 0 1-.019-.058Zm.565-.29.125.009c.049.006.103.01.164.01a.326.326 0 0 0 .155-.034.216.216 0 0 0 .092-.086.413.413 0 0 0 .048-.133.982.982 0 0 0 .014-.172v-.267a.902.902 0 0 0-.014-.167.416.416 0 0 0-.048-.138.216.216 0 0 0-.092-.086.372.372 0 0 0-.155-.029 8.357 8.357 0 0 0-.29.014v1.078Z" fill="#42515A"/><path d="M28.41 43.501v-2.433c0-.015.008-.03.024-.043a.066.066 0 0 1 .049-.019h.458c.017 0 .033.007.049.02a.06.06 0 0 1 .019.042v.921h.864v-.92c0-.017.008-.03.024-.044a.066.066 0 0 1 .049-.019h.453c.02 0 .036.007.049.02.016.012.024.026.024.042v2.433c0 .02-.008.035-.024.048a.06.06 0 0 1-.049.024h-.454a.06.06 0 0 1-.048-.024.058.058 0 0 1-.024-.048v-.997h-.864v.997a.06.06 0 0 1-.02.048.067.067 0 0 1-.048.024h-.458a.06.06 0 0 1-.049-.024.058.058 0 0 1-.024-.048Z" fill="#42515A"/></svg>