<svg width="20" height="21" fill="none" xmlns="http://www.w3.org/2000/svg"><g clip-path="url(#a)"><path d="M19.583 6.397a2.322 2.322 0 0 0-.638-1.058 2.542 2.542 0 0 0-1.116-.618c-1.564-.413-7.834-.413-7.834-.413A63.852 63.852 0 0 0 2.17 4.7a2.633 2.633 0 0 0-1.115.633 2.414 2.414 0 0 0-.649 1.064A24.242 24.242 0 0 0 0 10.975c-.01 1.534.125 3.067.406 4.578.114.4.337.764.646 1.058.31.294.694.506 1.118.619 1.585.412 7.825.412 7.825.412 2.617.03 5.233-.101 7.835-.392.418-.108.801-.32 1.115-.618.304-.289.524-.655.637-1.059.288-1.509.427-3.043.418-4.579a22.148 22.148 0 0 0-.417-4.597ZM8 13.829V8.123l5.217 2.853L8 13.828Z" fill="#fff"/></g><defs><clipPath id="a"><path fill="#fff" transform="translate(0 .975)" d="M0 0h20v20H0z"/></clipPath></defs></svg>