<svg width="16" height="16" fill="none" xmlns="http://www.w3.org/2000/svg"><g clip-path="url(#a)"><path d="M8 0C3.578 0 0 3.578 0 8c0 4.422 3.578 8 8 8 4.422 0 8-3.578 8-8 0-4.422-3.578-8-8-8ZM4.905 1.649a18.25 18.25 0 0 0-.61 2.009 12.641 12.641 0 0 1-1.414-.524 7.081 7.081 0 0 1 2.024-1.485ZM2.26 3.882a13.57 13.57 0 0 0 1.837.696 18.502 18.502 0 0 0-.31 2.953H.953a6.996 6.996 0 0 1 1.308-3.648Zm0 8.235A6.996 6.996 0 0 1 .953 8.47h2.835c.025.999.129 1.985.31 2.953a13.6 13.6 0 0 0-1.837.695Zm.62.75c.46-.204.933-.378 1.414-.525.165.681.368 1.352.61 2.01a7.083 7.083 0 0 1-2.024-1.486Zm4.65 2.18a7.064 7.064 0 0 1-1.441-.245 17.369 17.369 0 0 1-.888-2.699c.76-.17 1.538-.269 2.33-.297v3.24Zm0-4.179c-.857.028-1.7.135-2.523.318a17.572 17.572 0 0 1-.282-2.717H7.53v2.399Zm0-3.337H4.726c.024-.919.118-1.825.282-2.717.823.183 1.665.29 2.523.318v2.4Zm0-3.337a12.729 12.729 0 0 1-2.329-.297 17.37 17.37 0 0 1 .888-2.7A7.07 7.07 0 0 1 7.53.953v3.24Zm6.208-.312a6.995 6.995 0 0 1 1.308 3.65h-2.835a18.502 18.502 0 0 0-.31-2.954 13.52 13.52 0 0 0 1.837-.696Zm-.62-.748c-.46.203-.933.377-1.414.524a18.253 18.253 0 0 0-.61-2.01 7.11 7.11 0 0 1 2.024 1.486ZM8.469.954c.492.031.975.113 1.441.244.37.874.666 1.776.888 2.699-.76.17-1.538.269-2.33.297V.954Zm0 4.178a13.67 13.67 0 0 0 2.523-.318c.164.892.258 1.798.282 2.717H8.469V5.132Zm1.441 9.67c-.466.13-.949.213-1.441.245v-3.24c.791.027 1.569.127 2.329.296a17.357 17.357 0 0 1-.888 2.7Zm-1.44-3.934v-2.4h2.805a17.573 17.573 0 0 1-.282 2.718 13.669 13.669 0 0 0-2.523-.318Zm2.626 3.483c.242-.657.445-1.328.61-2.009.481.147.953.322 1.414.524a7.082 7.082 0 0 1-2.024 1.486Zm2.644-2.234a13.596 13.596 0 0 0-1.837-.695c.181-.968.285-1.954.31-2.953h2.835a6.995 6.995 0 0 1-1.308 3.649Z" fill="#EAEFEE"/></g><defs><clipPath id="a"><path fill="#fff" d="M0 0h16v16H0z"/></clipPath></defs></svg>